HIERARCHY
ROOT Hips
{
  OFFSET 267.745 86.9975 -272.335
  CHANNELS 6 Xposition Yposition Zposition Zrotation Xrotation Yrotation
  JOINT LeftUpLeg
  {
    OFFSET 8.64259 1.95398 -2.38835
    CHANNELS 3 Zrotation Xrotation Yrotation
    JOINT LeftLeg
    {
      OFFSET 43.7702 0 0
      CHANNELS 3 Zrotation Xrotation Yrotation
      JOINT LeftFoot
      {
        OFFSET 40.6238 0 0
        CHANNELS 3 Zrotation Xrotation Yrotation
        JOINT LeftToeBase
        {
          OFFSET 12.7242 0 0
          CHANNELS 3 Zrotation Xrotation Yrotation
          End Site
          {
            OFFSET 0 0 0
          }
        }
      }
    }
  }
  JOINT RightUpLeg
  {
    OFFSET -8.2249 1.95398 -2.59336
    CHANNELS 3 Zrotation Xrotation Yrotation
    JOINT RightLeg
    {
      OFFSET 43.5653 0 0
      CHANNELS 3 Zrotation Xrotation Yrotation
      JOINT RightFoot
      {
        OFFSET 40.6238 0 0
        CHANNELS 3 Zrotation Xrotation Yrotation
        JOINT RightToeBase
        {
          OFFSET 12.7242 0 0
          CHANNELS 3 Zrotation Xrotation Yrotation
          End Site
          {
            OFFSET 0 0 0
          }
        }
      }
    }
  }
  JOINT Spine
  {
    OFFSET 0.165834 0.87714 6.61349
    CHANNELS 3 Zrotation Xrotation Yrotation
    JOINT Spine1
    {
      OFFSET 7.38963 1.71661e-005 0
      CHANNELS 3 Zrotation Xrotation Yrotation
      JOINT Spine2
      {
        OFFSET 11.9445 1.14441e-005 0
        CHANNELS 3 Zrotation Xrotation Yrotation
        JOINT Spine3
        {
          OFFSET 14.7254 4.19617e-005 0
          CHANNELS 3 Zrotation Xrotation Yrotation
          JOINT Spine4
          {
            OFFSET 10.9679 0 0
            CHANNELS 3 Zrotation Xrotation Yrotation
            JOINT RightShoulder
            {
              OFFSET 2.46616 -1.6653 3.69651
              CHANNELS 3 Zrotation Xrotation Yrotation
              JOINT RightArm
              {
                OFFSET 13.0012 0 0
                CHANNELS 3 Zrotation Xrotation Yrotation
                JOINT RightForeArm
                {
                  OFFSET 28.7848 1.52588e-005 0
                  CHANNELS 3 Zrotation Xrotation Yrotation
                  JOINT RightHand
                  {
                    OFFSET 26.5688 1.52588e-005 0
                    CHANNELS 3 Zrotation Xrotation Yrotation
                    End Site
                    {
                      OFFSET 0 0 0
                    }
                  }
                }
              }
            }
            JOINT LeftShoulder
            {
              OFFSET 2.38034 -1.29275 -3.7523
              CHANNELS 3 Zrotation Xrotation Yrotation
              JOINT LeftArm
              {
                OFFSET 16.3182 6.10352e-005 0
                CHANNELS 3 Zrotation Xrotation Yrotation
                JOINT LeftForeArm
                {
                  OFFSET 27.0901 0 0
                  CHANNELS 3 Zrotation Xrotation Yrotation
                  JOINT LeftHand
                  {
                    OFFSET 24.5451 1.52588e-005 0
                    CHANNELS 3 Zrotation Xrotation Yrotation
                    End Site
                    {
                      OFFSET 0 0 0
                    }
                  }
                }
              }
            }
            JOINT Neck
            {
              OFFSET 5.0226 -0.0266342 0
              CHANNELS 3 Zrotation Xrotation Yrotation
              JOINT Head
              {
                OFFSET 6.69364 2.86102e-005 0
                CHANNELS 3 Zrotation Xrotation Yrotation
                End Site
                {
                  OFFSET 0 0 0
                }
              }
            }
          }
        }
      }
    }
  }
}
MOTION
Frames:	6
Frame Time:	0.0416667
-97.0018 100.903 -83.1723 -101.614 45.765 -72.8957 -171.627 30.1514 101.857 -24.5524 12.3454 -0.978921 30.8762 -17.7042 -12.5485 25.6266 1.21365 -7.3176 165.383 37.8077 86.4374 -21.8553 -1.29131 8.36074 35.2569 17.2648 33.9504 43.893 -3.45375 3.08194 0.0510055 12.4511 -89.6766 1.97058 0.226784 0.63409 -9.7006 0.254449 0.623503 -32.2339 0.0257302 0.672926 -12.2213 0.0257363 0.672924 102.233 -29.4564 -82.045 6.69165 -1.75545 42.9417 3.64802 -9.43948 -4.71496 1.04996 0.0025443 -3.17603 -82.168 -39.6475 89.3852 -22.2766 -12.1761 38.9562 -3.32212 25.9338 -0.00336509 6.54194 -0.125065 -5.44513 -12.2618 6.42741 -19.8487 2.95189 8.5624 23.118 
-113.687 85.0457 -100.998 -104.596 38.7546 -76.6497 -175.607 24.0458 90.7281 -60.6917 24.9303 2.16626 63.7722 13.4804 28.7515 53.58 -1.6429 3.68855 165.618 39.4228 82.8782 -23.2213 -2.50775 6.89618 22.0889 21.4375 35.9904 66.3126 -8.12722 4.958 -0.946754 12.4964 -89.5138 1.88307 -1.7029 0.907424 -9.78725 -1.66135 0.981506 -32.3298 -1.89688 0.353551 -12.3171 -1.89687 0.353551 106.293 -47.6979 -75.5133 12.4651 13.5808 41.3192 0.64468 4.51031 0.191373 2.77577 0.0350499 -3.36612 -82.0191 -54.8761 90.8623 -14.4347 -9.18435 8.42091 -4.03824 16.1266 1.07674 8.974 -0.36951 -7.29921 -11.1684 6.43968 -18.2092 3.88537 8.77133 22.0087 
-126.344 76.3492 -115.389 -102.665 32.4631 -78.9598 176.709 31.191 93.0375 -95.3505 24.003 3.32315 59.3439 6.5401 19.3319 70.777 -2.19497 9.92106 159.421 47.8129 89.2066 -59.2171 -18.7559 9.19839 62.3346 -1.80167 -3.69629 8.67993 4.00407 4.0152 -0.996429 12.454 -90.1413 1.96155 -2.04398 -0.32278 -9.70782 -2.0562 -0.232472 -32.2537 -1.85244 -0.922346 -12.2411 -1.85243 -0.922337 106.443 -57.7555 -76.0968 29.0281 1.38849 7.8912 5.65561 12.1661 -9.76734 7.36368 -0.276164 -8.65167 -85.2731 -57.2953 86.4947 -15.68 -3.68962 -27.2436 -1.12982 4.81816 -14.8493 11.0515 -0.482158 -7.69681 -3.58033 4.01702 -12.3298 1.64424 6.09127 15.3166 
-137.6 72.0795 -124.596 -110.533 41.028 -69.498 170.433 43.9681 98.4198 -105.45 17.0948 3.15528 56.6741 3.47506 16.034 58.7379 -2.18855 7.94516 161.589 49.9884 93.7922 -82.8181 -27.904 2.57803 48.4877 9.74318 4.38283 46.6081 -4.00678 6.17603 -0.17699 13.2484 -90.3246 0.374668 -0.474013 -0.651404 -11.2963 -0.502236 -0.629922 -33.8305 -0.256346 -0.763747 -13.8179 -0.256329 -0.763765 98.6593 -52.1233 -87.4633 13.6918 -6.25119 -26.957 15.3559 17.8145 -37.4584 -0.279711 -0.0723521 -11.1565 -89.1533 -51.547 80.0594 -18.5748 -6.34304 -44.2294 2.34314 17.2926 -8.53313 30.5563 -0.545607 -5.78079 2.39584 3.40841 -9.29296 -3.78865 4.93213 19.655 
-148.409 71.73 -134.122 -110.691 48.8628 -71.3382 166.862 51.2858 98.7351 -72.2941 24.6263 4.78129 53.227 -0.826025 13.9078 52.7606 -1.85131 9.75887 164.798 44.8929 90.9654 -93.136 -21.5678 -0.221317 65.7771 -5.75005 -1.80989 56.1601 -5.59478 8.36616 0.0666858 12.7666 -89.7543 1.3488 0.228838 0.470528 -10.322 0.249335 0.459991 -32.858 0.076809 0.517541 -12.8453 0.0768177 0.517536 100.806 -47.437 -84.367 24.509 3.31872 -39.3477 14.0331 11.2685 -52.0278 -4.23913 0.139372 -10.3524 -90.3484 -55.5477 79.0977 -10.7233 -8.22189 -38.1914 -1.63287 23.9564 -1.37422 20.3509 -0.258179 -5.29084 1.02059 3.453 -10.9256 -4.19967 5.02472 21.4011 
-160.149 70.5663 -145.042 -112.346 54.285 -70.7839 171.381 53.0894 98.5805 -66.2621 25.0226 3.95619 52.2974 -2.54882 10.9561 41.583 -1.3965 4.86499 173.847 38.2774 84.6844 -100.856 -20.6121 -2.56138 66.5108 -5.1885 1.49225 73.2505 -6.52696 14.599 -0.0741606 12.3458 -89.2053 2.17752 0.159688 1.55607 -9.49435 0.228005 1.54752 -32.0221 -0.315298 1.53214 -12.0095 -0.315293 1.53213 100.712 -51.537 -84.39 19.9304 -5.54007 -32.2361 3.74507 4.81138 -53.7532 -1.96631 0.0754422 -11.8584 -89.4353 -60.0495 81.1836 -9.5528 -9.61713 -27.5115 -2.30945 13.6256 0.0762299 16.543 -0.0951692 -4.36129 9.06231 5.56756 -15.5724 -12.7311 6.78617 27.1918 
